<svg width="20" height="34" viewBox="0 0 20 34" fill="none" xmlns="http://www.w3.org/2000/svg">
<path d="M16.9062 0.53125H3.09375C2.53039 0.531988 1.99032 0.756108 1.59196 1.15446C1.19361 1.55282 0.969488 2.09289 0.96875 2.65625V31.3438C0.969488 31.9071 1.19361 32.4472 1.59196 32.8455C1.99032 33.2439 2.53039 33.468 3.09375 33.4688H16.9062C17.4696 33.468 18.0097 33.2439 18.408 32.8455C18.8064 32.4472 19.0305 31.9071 19.0312 31.3438V2.65625C19.0305 2.09289 18.8064 1.55282 18.408 1.15446C18.0097 0.756108 17.4696 0.531988 16.9062 0.53125ZM12.4862 1.59375L12.1874 2.65625H7.75879L7.49316 1.59375H12.4862ZM17.9688 31.3438C17.9684 31.6254 17.8563 31.8955 17.6571 32.0946C17.458 32.2938 17.1879 32.4059 16.9062 32.4062H3.09375C2.81207 32.4059 2.54203 32.2938 2.34286 32.0946C2.14368 31.8955 2.03162 31.6254 2.03125 31.3438V2.65625C2.03162 2.37457 2.14368 2.10453 2.34286 1.90536C2.54203 1.70618 2.81207 1.59412 3.09375 1.59375H6.39746L6.82844 3.31633C6.85717 3.43126 6.92348 3.53329 7.01685 3.6062C7.11022 3.67912 7.22528 3.71873 7.34375 3.71875H12.5898C12.7056 3.71875 12.8182 3.68093 12.9105 3.61104C13.0028 3.54116 13.0698 3.44303 13.1012 3.3316L13.5899 1.59375H16.9062C17.1879 1.59412 17.458 1.70618 17.6571 1.90536C17.8563 2.10453 17.9684 2.37457 17.9688 2.65625V31.3438Z" fill="#BB3800"/>
<path d="M7.34375 30.2812H3.625C3.4841 30.2812 3.34898 30.3372 3.24935 30.4368C3.14972 30.5365 3.09375 30.6716 3.09375 30.8125C3.09375 30.9534 3.14972 31.0885 3.24935 31.1882C3.34898 31.2878 3.4841 31.3438 3.625 31.3438H7.34375C7.48465 31.3438 7.61977 31.2878 7.7194 31.1882C7.81903 31.0885 7.875 30.9534 7.875 30.8125C7.875 30.6716 7.81903 30.5365 7.7194 30.4368C7.61977 30.3372 7.48465 30.2812 7.34375 30.2812Z" fill="#BB3800"/>
<path d="M9.46875 30.2812H8.9375C8.7966 30.2812 8.66148 30.3372 8.56185 30.4368C8.46222 30.5365 8.40625 30.6716 8.40625 30.8125C8.40625 30.9534 8.46222 31.0885 8.56185 31.1882C8.66148 31.2878 8.7966 31.3438 8.9375 31.3438H9.46875C9.60965 31.3438 9.74477 31.2878 9.8444 31.1882C9.94403 31.0885 10 30.9534 10 30.8125C10 30.6716 9.94403 30.5365 9.8444 30.4368C9.74477 30.3372 9.60965 30.2812 9.46875 30.2812Z" fill="#BB3800"/>
<path d="M11.8671 13.8882C11.8073 13.8523 11.741 13.8286 11.672 13.8183C11.6029 13.808 11.5326 13.8114 11.4649 13.8284C11.3972 13.8453 11.3335 13.8754 11.2775 13.9169C11.2214 13.9584 11.1741 14.0106 11.1382 14.0704L7.95071 19.3829C7.87822 19.5038 7.85669 19.6484 7.89086 19.7851C7.92504 19.9218 8.01211 20.0393 8.13293 20.1118C8.25375 20.1843 8.39841 20.2058 8.53511 20.1717C8.6718 20.1375 8.78931 20.0504 8.8618 19.9296L12.0493 14.6171C12.0852 14.5573 12.109 14.491 12.1192 14.4219C12.1295 14.3529 12.1261 14.2826 12.1092 14.2149C12.0922 14.1472 12.0621 14.0835 12.0206 14.0275C11.9791 13.9714 11.9269 13.9241 11.8671 13.8882Z" fill="#BB3800"/>
<path d="M13.6023 14.0117C13.5587 13.9572 13.5048 13.9119 13.4437 13.8782C13.3826 13.8446 13.3154 13.8233 13.246 13.8156C13.106 13.8001 12.9655 13.8408 12.8555 13.9289C12.7454 14.017 12.6749 14.1451 12.6594 14.2852C12.6438 14.4252 12.6846 14.5657 12.7726 14.6758L14.632 17L12.7726 19.3242C12.6846 19.4342 12.6438 19.5747 12.6594 19.7148C12.6749 19.8549 12.7454 19.983 12.8555 20.0711C12.9655 20.1591 13.106 20.1999 13.246 20.1844C13.3861 20.1688 13.5143 20.0983 13.6023 19.9883L15.7273 17.332C15.8028 17.2378 15.8439 17.1207 15.8439 17C15.8439 16.8793 15.8028 16.7622 15.7273 16.668L13.6023 14.0117Z" fill="#BB3800"/>
<path d="M6.39767 19.9883C6.48573 20.0983 6.61389 20.1688 6.75396 20.1843C6.89402 20.1999 7.03452 20.1591 7.14454 20.0711C7.25456 19.983 7.3251 19.8549 7.34063 19.7148C7.35616 19.5747 7.31541 19.4342 7.22735 19.3242L5.36797 17L7.22735 14.6758C7.27095 14.6213 7.3034 14.5588 7.32284 14.4917C7.34227 14.4247 7.34832 14.3545 7.34063 14.2852C7.33294 14.2158 7.31166 14.1487 7.27802 14.0875C7.24438 14.0264 7.19902 13.9725 7.14454 13.9289C7.09006 13.8853 7.02753 13.8528 6.96052 13.8334C6.8935 13.814 6.82331 13.8079 6.75396 13.8156C6.6846 13.8233 6.61744 13.8446 6.55631 13.8782C6.49518 13.9119 6.44127 13.9572 6.39767 14.0117L4.27267 16.668C4.19723 16.7622 4.15613 16.8793 4.15613 17C4.15613 17.1207 4.19723 17.2378 4.27267 17.332L6.39767 19.9883Z" fill="#BB3800"/>
</svg>
